<svg width="52" height="53" viewBox="0 0 52 53" fill="none" xmlns="http://www.w3.org/2000/svg">
<path d="M19.6798 11.9077V40.7919" stroke="white" stroke-opacity="0.5" stroke-width="3.20936" stroke-linecap="round" stroke-linejoin="round"/>
<path d="M5.23767 34.2107C5.2376 33.8411 5.36536 33.4827 5.5993 33.1965C5.83324 32.9102 6.15895 32.7137 6.52125 32.6401C7.97096 32.3439 9.27387 31.5561 10.2096 30.4099C11.1453 29.2637 11.6564 27.8294 11.6564 26.3498C11.6564 24.8701 11.1453 23.4359 10.2096 22.2897C9.27387 21.1434 7.97096 20.3556 6.52125 20.0594C6.15895 19.9859 5.83324 19.7893 5.5993 19.5031C5.36536 19.2168 5.2376 18.8585 5.23767 18.4888V13.5123C5.23767 13.0867 5.40673 12.6786 5.70767 12.3777C6.00861 12.0767 6.41676 11.9077 6.84235 11.9077H45.3547C45.7803 11.9077 46.1884 12.0767 46.4894 12.3777C46.7903 12.6786 46.9593 13.0867 46.9593 13.5123V18.4888C46.9594 18.8585 46.8317 19.2168 46.5977 19.5031C46.3638 19.7893 46.0381 19.9859 45.6758 20.0594C44.2261 20.3556 42.9231 21.1434 41.9874 22.2897C41.0517 23.4359 40.5406 24.8701 40.5406 26.3498C40.5406 27.8294 41.0517 29.2637 41.9874 30.4099C42.9231 31.5561 44.2261 32.344 45.6758 32.6401C46.0381 32.7137 46.3638 32.9102 46.5977 33.1965C46.8317 33.4827 46.9594 33.8411 46.9593 34.2107V39.1872C46.9593 39.6128 46.7903 40.021 46.4894 40.3219C46.1884 40.6228 45.7803 40.7919 45.3547 40.7919H6.84235C6.41676 40.7919 6.00861 40.6228 5.70767 40.3219C5.40673 40.021 5.23767 39.6128 5.23767 39.1872V34.2107Z" stroke="white" stroke-opacity="0.5" stroke-width="3.20936" stroke-linecap="round" stroke-linejoin="round"/>
</svg>
