<svg width="50" height="50" viewBox="0 0 50 50" fill="none" xmlns="http://www.w3.org/2000/svg">
<path d="M25.8615 37.2525L35.7122 43.4934C36.9714 44.2912 38.5347 43.1047 38.1611 41.6349L35.315 30.4391C35.2349 30.1273 35.2443 29.7992 35.3424 29.4925C35.4404 29.1858 35.623 28.913 35.8692 28.7055L44.7027 21.3533C45.8633 20.3872 45.2643 18.461 43.773 18.3642L32.2371 17.6155C31.9264 17.5933 31.6284 17.4833 31.3778 17.2983C31.1272 17.1133 30.9343 16.8609 30.8215 16.5705L26.5191 5.73589C26.4022 5.42766 26.1942 5.1623 25.9229 4.97504C25.6516 4.78779 25.3297 4.6875 25 4.6875C24.6703 4.6875 24.3485 4.78779 24.0771 4.97504C23.8058 5.1623 23.5979 5.42766 23.4809 5.73589L19.1785 16.5705C19.0658 16.8609 18.8729 17.1133 18.6222 17.2983C18.3716 17.4833 18.0736 17.5933 17.7629 17.6155L6.22696 18.3642C4.73573 18.461 4.13666 20.3872 5.29734 21.3533L14.1308 28.7055C14.377 28.913 14.5596 29.1858 14.6576 29.4925C14.7557 29.7992 14.7652 30.1273 14.685 30.4391L12.0456 40.822C11.5972 42.5857 13.4732 44.0095 14.9842 43.0522L24.1385 37.2525C24.3959 37.0886 24.6948 37.0015 25 37.0015C25.3052 37.0015 25.6041 37.0886 25.8615 37.2525V37.2525Z" stroke="url(#paint0_linear_390_118)" stroke-width="3.20936" stroke-linecap="round" stroke-linejoin="round"/>
<defs>
<linearGradient id="paint0_linear_390_118" x1="4.6875" y1="24.2187" x2="47.1706" y2="23.6979" gradientUnits="userSpaceOnUse">
<stop stop-color="#F7BA2B" stop-opacity="0.9"/>
<stop offset="1" stop-color="#EA5358" stop-opacity="0.9"/>
</linearGradient>
</defs>
</svg>
