<svg width="25" height="26" viewBox="0 0 25 26" fill="none" xmlns="http://www.w3.org/2000/svg">
<g clip-path="url(#clip0_310_36)">
<path d="M17.35 3.49999C16.033 2.14453 14.4163 1.117 12.63 0.499985C12.5371 0.473605 12.4386 0.474675 12.3463 0.503068C12.2541 0.53146 12.172 0.58596 12.11 0.659985C12.049 0.734633 12.0109 0.825319 12.0003 0.921124C11.9896 1.01693 12.0069 1.11377 12.05 1.19999C13.1083 3.15736 13.404 5.4374 12.88 7.59999C12.8714 7.63353 12.8521 7.66336 12.825 7.685C12.798 7.70664 12.7646 7.71892 12.73 7.71999C12.64 7.71999 12.62 7.71999 12.62 7.64999C11.8564 5.79979 10.5708 4.21187 8.92 3.07999C8.83583 3.02448 8.73685 2.99572 8.63605 2.99747C8.53524 2.99922 8.43732 3.03141 8.35513 3.08981C8.27295 3.1482 8.21033 3.23008 8.17551 3.32469C8.14069 3.41931 8.13528 3.52224 8.16 3.61999C8.75 5.92999 7.59 7.31999 6.16 9.07999C4.73 10.84 3 12.9 3 16.22C3.03513 18.3414 3.78166 20.3896 5.11989 22.0361C6.45812 23.6826 8.31051 24.832 10.38 25.3C9.95813 25.0022 9.61302 24.6085 9.37309 24.1513C9.13317 23.694 9.00529 23.1863 9 22.67C9 17.33 12.5 16 12.5 16C13.2 19.5 16 20.3 16 22.67C15.995 23.1803 15.8702 23.6824 15.6357 24.1357C15.4013 24.589 15.0636 24.981 14.65 25.28C16.1171 24.9617 17.4879 24.3003 18.65 23.35C19.7022 22.4777 20.5482 21.3833 21.1274 20.1454C21.7066 18.9075 22.0046 17.5567 22 16.19C22 9.49998 19.47 5.59999 17.35 3.49999Z" fill="url(#paint0_radial_310_36)"/>
</g>
<defs>
<radialGradient id="paint0_radial_310_36" cx="0" cy="0" r="1" gradientUnits="userSpaceOnUse" gradientTransform="translate(12.5 12.8905) rotate(-127.436) scale(15.6284 105.493)">
<stop stop-color="#E9D022"/>
<stop offset="1" stop-color="#E60B09"/>
</radialGradient>
<clipPath id="clip0_310_36">
<rect width="25" height="25" fill="white" transform="translate(0 0.5)"/>
</clipPath>
</defs>
</svg>
