<svg width="50" height="50" viewBox="0 0 50 50" fill="none" xmlns="http://www.w3.org/2000/svg">
<path d="M45.3125 25C45.3125 25 36.25 37.5 25 37.5C13.75 37.5 4.6875 25 4.6875 25C4.6875 25 13.75 12.5 25 12.5C36.25 12.5 45.3125 25 45.3125 25Z" stroke="url(#paint0_linear_514_22)" stroke-width="3" stroke-miterlimit="10" stroke-linejoin="round"/>
<path d="M25 31.25C28.4518 31.25 31.25 28.4518 31.25 25C31.25 21.5482 28.4518 18.75 25 18.75C21.5482 18.75 18.75 21.5482 18.75 25C18.75 28.4518 21.5482 31.25 25 31.25Z" stroke="url(#paint1_linear_514_22)" stroke-width="3" stroke-miterlimit="10" stroke-linejoin="round"/>
<defs>
<linearGradient id="paint0_linear_514_22" x1="4.6875" y1="25" x2="47.1613" y2="24.1863" gradientUnits="userSpaceOnUse">
<stop stop-color="#F7BA2B" stop-opacity="0.9"/>
<stop offset="1" stop-color="#EA5358" stop-opacity="0.9"/>
</linearGradient>
<linearGradient id="paint1_linear_514_22" x1="18.75" y1="25" x2="31.8219" y2="24.8459" gradientUnits="userSpaceOnUse">
<stop stop-color="#F7BA2B" stop-opacity="0.9"/>
<stop offset="1" stop-color="#EA5358" stop-opacity="0.9"/>
</linearGradient>
</defs>
</svg>
